<svg xmlns="http://www.w3.org/2000/svg" xmlns:xlink="http://www.w3.org/1999/xlink" width="400" zoomAndPan="magnify" viewBox="0 0 300 240.749995" height="321" preserveAspectRatio="xMidYMid meet" version="1.0"><defs><clipPath id="id1"><path d="M 54 53.285156 L 245 53.285156 L 245 187.398438 L 54 187.398438 Z M 54 53.285156 " clip-rule="nonzero"/></clipPath></defs><path fill="#3747d6" d="M 149.539062 85.3125 C 130.210938 85.3125 114.542969 100.996094 114.542969 120.339844 C 114.542969 139.6875 130.210938 155.371094 149.539062 155.371094 C 168.863281 155.371094 184.53125 139.6875 184.53125 120.339844 C 184.53125 100.996094 168.863281 85.3125 149.539062 85.3125 Z M 149.539062 85.3125 " fill-opacity="1" fill-rule="nonzero"/><path fill="#90caea" d="M 117.824219 87.285156 C 100.121094 105.511719 100.121094 135.171875 117.824219 153.398438 L 103.484375 167.351562 C 78.238281 141.355469 78.238281 99.324219 103.484375 73.332031 Z M 181.253906 153.398438 C 198.953125 135.171875 198.953125 105.511719 181.253906 87.285156 L 195.589844 73.332031 C 220.835938 99.324219 220.835938 141.355469 195.589844 167.351562 Z M 181.253906 153.398438 " fill-opacity="1" fill-rule="evenodd"/><g clip-path="url(#id1)"><path fill="#90caea" d="M 96.507812 67.375 C 67.234375 96.628906 67.234375 144.054688 96.507812 173.308594 L 82.382812 187.472656 C 45.28125 150.398438 45.28125 90.28125 82.382812 53.207031 Z M 202.566406 173.308594 C 231.839844 144.054688 231.839844 96.628906 202.566406 67.375 L 216.695312 53.207031 C 253.792969 90.28125 253.792969 150.398438 216.695312 187.472656 Z M 202.566406 173.308594 " fill-opacity="1" fill-rule="evenodd"/></g></svg>