<svg xmlns="http://www.w3.org/2000/svg" xmlns:xlink="http://www.w3.org/1999/xlink" width="400" zoomAndPan="magnify" viewBox="0 0 300 240.749995" height="321" preserveAspectRatio="xMidYMid meet" version="1.0"><defs><clipPath id="id1"><path d="M 53.800781 42.070312 L 190 42.070312 L 190 179 L 53.800781 179 Z M 53.800781 42.070312 " clip-rule="nonzero"/></clipPath><clipPath id="id2"><path d="M 172 130 L 241 130 L 241 198.660156 L 172 198.660156 Z M 172 130 " clip-rule="nonzero"/></clipPath><clipPath id="id3"><path d="M 193 79 L 244.851562 79 L 244.851562 131 L 193 131 Z M 193 79 " clip-rule="nonzero"/></clipPath></defs><g clip-path="url(#id1)"><path fill="#ffe500" d="M 117.140625 145.058594 C 97.984375 142.527344 84.507812 124.933594 87.03125 105.742188 C 89.554688 86.5625 107.128906 73.0625 126.273438 75.589844 C 145.421875 78.117188 158.90625 95.722656 156.382812 114.902344 C 153.859375 134.085938 136.285156 147.585938 117.140625 145.058594 Z M 188.847656 119.269531 L 189.421875 108.683594 C 189.605469 105.296875 187.007812 102.398438 183.625 102.210938 L 177.113281 101.867188 C 176.28125 96.363281 174.640625 91.089844 172.300781 86.183594 L 177.507812 82.214844 C 180.207031 80.15625 180.730469 76.304688 178.675781 73.601562 L 172.285156 65.164062 C 170.230469 62.460938 166.378906 61.9375 163.675781 63.996094 L 158.46875 67.953125 C 153.203125 63.363281 147.039062 59.714844 140.214844 57.328125 L 141.0625 50.847656 C 141.511719 47.484375 139.144531 44.390625 135.78125 43.953125 L 125.300781 42.570312 C 121.941406 42.125 118.855469 44.492188 118.410156 47.855469 L 117.558594 54.335938 C 109.265625 54.941406 101.390625 57.386719 94.382812 61.3125 L 90.109375 56.382812 C 87.886719 53.8125 84.007812 53.535156 81.453125 55.769531 L 73.46875 62.714844 C 70.902344 64.929688 70.632812 68.816406 72.855469 71.386719 L 77.121094 76.304688 C 72.753906 82.039062 69.449219 88.667969 67.53125 95.949219 L 61.019531 95.597656 C 57.628906 95.417969 54.742188 98.015625 54.558594 101.410156 L 53.992188 111.988281 C 53.804688 115.375 56.398438 118.273438 59.789062 118.460938 L 66.300781 118.804688 C 67.140625 124.300781 68.78125 129.574219 71.121094 134.472656 L 65.9375 138.425781 C 63.230469 140.480469 62.707031 144.339844 64.761719 147.035156 L 71.164062 155.472656 C 73.207031 158.179688 77.0625 158.699219 79.761719 156.644531 L 84.953125 152.691406 C 90.226562 157.300781 96.394531 160.941406 103.222656 163.328125 L 102.375 169.800781 C 101.929688 173.171875 104.292969 176.253906 107.65625 176.703125 L 118.140625 178.082031 C 121.496094 178.53125 124.585938 176.152344 125.023438 172.789062 L 125.878906 166.308594 C 134.167969 165.695312 142.039062 163.25 149.046875 159.324219 L 153.332031 164.269531 C 155.550781 166.832031 159.429688 167.109375 161.996094 164.886719 L 169.980469 157.941406 C 172.535156 155.71875 172.804688 151.832031 170.585938 149.261719 L 166.300781 144.324219 C 170.660156 138.601562 173.957031 131.984375 175.875 124.722656 L 182.394531 125.074219 C 185.777344 125.253906 188.671875 122.65625 188.847656 119.269531 " fill-opacity="1" fill-rule="nonzero"/></g><g clip-path="url(#id2)"><path fill="#ffe500" d="M 206.515625 182.296875 C 196.832031 182.296875 188.992188 174.441406 188.992188 164.75 C 188.992188 155.058594 196.832031 147.195312 206.515625 147.195312 C 216.191406 147.195312 224.039062 155.058594 224.039062 164.75 C 224.039062 174.441406 216.191406 182.296875 206.515625 182.296875 Z M 240.441406 164.785156 L 240.039062 159.492188 C 239.90625 157.796875 238.425781 156.535156 236.734375 156.660156 L 233.476562 156.914062 C 232.703125 154.234375 231.542969 151.722656 230.0625 149.449219 L 232.390625 147.128906 C 233.59375 145.933594 233.605469 143.976562 232.410156 142.773438 L 228.683594 139.007812 C 227.488281 137.800781 225.535156 137.785156 224.332031 138.988281 L 222.003906 141.296875 C 219.082031 139.359375 215.785156 137.953125 212.242188 137.21875 L 212.242188 133.941406 C 212.242188 132.238281 210.863281 130.855469 209.164062 130.855469 L 203.875 130.855469 C 202.175781 130.855469 200.792969 132.238281 200.792969 133.941406 L 200.792969 137.210938 C 196.714844 138.054688 192.960938 139.789062 189.738281 142.199219 L 187.292969 140.027344 C 186.023438 138.894531 184.078125 139.015625 182.949219 140.285156 L 179.441406 144.265625 C 178.316406 145.535156 178.433594 147.484375 179.703125 148.613281 L 182.144531 150.777344 C 180.351562 153.90625 179.140625 157.417969 178.667969 161.160156 L 175.40625 161.414062 C 173.714844 161.539062 172.453125 163.023438 172.578125 164.71875 L 172.992188 170.019531 C 173.117188 171.710938 174.597656 172.976562 176.289062 172.851562 L 179.550781 172.589844 C 180.328125 175.269531 181.488281 177.78125 182.96875 180.0625 L 180.644531 182.355469 C 179.441406 183.5625 179.433594 185.507812 180.628906 186.722656 L 184.355469 190.488281 C 185.550781 191.695312 187.503906 191.703125 188.707031 190.503906 L 191.027344 188.203125 C 193.945312 190.144531 197.253906 191.550781 200.792969 192.285156 L 200.792969 195.554688 C 200.792969 197.253906 202.175781 198.636719 203.875 198.636719 L 209.164062 198.636719 C 210.863281 198.636719 212.242188 197.253906 212.242188 195.554688 L 212.242188 192.285156 C 216.316406 191.433594 220.066406 189.703125 223.289062 187.292969 L 225.746094 189.46875 C 227.015625 190.597656 228.960938 190.480469 230.085938 189.207031 L 233.59375 185.230469 C 234.722656 183.957031 234.605469 182.011719 233.335938 180.882812 L 230.886719 178.714844 C 232.671875 175.589844 233.882812 172.082031 234.351562 168.351562 L 237.617188 168.097656 C 239.308594 167.960938 240.578125 166.480469 240.441406 164.785156 " fill-opacity="1" fill-rule="nonzero"/></g><g clip-path="url(#id3)"><path fill="#ffe500" d="M 218.984375 117.0625 C 212.402344 117.0625 207.070312 111.71875 207.070312 105.128906 C 207.070312 98.539062 212.402344 93.195312 218.984375 93.195312 C 225.5625 93.195312 230.902344 98.539062 230.902344 105.128906 C 230.902344 111.71875 225.5625 117.0625 218.984375 117.0625 Z M 244.75 105.152344 L 244.4375 101.140625 C 244.339844 99.851562 243.21875 98.890625 241.933594 98.984375 L 239.460938 99.179688 C 238.871094 97.148438 237.996094 95.242188 236.867188 93.507812 L 238.632812 91.746094 C 239.550781 90.84375 239.550781 89.359375 238.652344 88.441406 L 235.816406 85.578125 C 234.90625 84.65625 233.425781 84.65625 232.511719 85.566406 L 230.75 87.320312 C 228.53125 85.847656 226.023438 84.785156 223.332031 84.21875 L 223.332031 81.734375 C 223.332031 80.445312 222.289062 79.390625 221 79.390625 L 216.980469 79.390625 C 215.683594 79.390625 214.640625 80.445312 214.640625 81.734375 L 214.640625 84.21875 C 211.546875 84.859375 208.695312 86.175781 206.246094 88.003906 L 204.394531 86.359375 C 203.425781 85.5 201.957031 85.59375 201.097656 86.554688 L 198.429688 89.570312 C 197.574219 90.539062 197.664062 92.015625 198.625 92.875 L 200.484375 94.519531 C 199.121094 96.902344 198.203125 99.566406 197.839844 102.40625 L 195.367188 102.601562 C 194.082031 102.699219 193.121094 103.820312 193.214844 105.109375 L 193.527344 109.132812 C 193.625 110.410156 194.753906 111.382812 196.03125 111.28125 L 198.515625 111.085938 C 199.09375 113.117188 199.976562 115.023438 201.105469 116.757812 L 199.347656 118.503906 C 198.429688 119.414062 198.421875 120.894531 199.332031 121.804688 L 202.164062 124.671875 C 203.066406 125.589844 204.546875 125.597656 205.464844 124.6875 L 207.222656 122.933594 C 209.441406 124.410156 211.949219 125.480469 214.640625 126.035156 L 214.640625 128.523438 C 214.640625 129.8125 215.683594 130.855469 216.980469 130.855469 L 221 130.855469 C 222.289062 130.855469 223.332031 129.8125 223.332031 128.523438 L 223.332031 126.035156 C 226.429688 125.386719 229.28125 124.074219 231.726562 122.253906 L 233.585938 123.894531 C 234.554688 124.753906 236.027344 124.664062 236.882812 123.703125 L 239.550781 120.683594 C 240.402344 119.714844 240.316406 118.234375 239.351562 117.382812 L 237.492188 115.730469 C 238.84375 113.351562 239.761719 110.699219 240.125 107.867188 L 242.605469 107.671875 C 243.882812 107.570312 244.851562 106.449219 244.75 105.152344 " fill-opacity="1" fill-rule="nonzero"/></g></svg>