<svg xmlns="http://www.w3.org/2000/svg" xmlns:xlink="http://www.w3.org/1999/xlink" width="2240" zoomAndPan="magnify" viewBox="0 0 1680 944.999993" height="1260" preserveAspectRatio="xMidYMid meet" version="1.0"><defs><g/></defs><rect x="-168" width="2016" fill="#ffffff" y="-94.499999" height="1133.999992" fill-opacity="1"/><rect x="-168" width="2016" fill="#ffffff" y="-94.499999" height="1133.999992" fill-opacity="1"/><rect x="-168" width="2016" fill="#ffffff" y="-94.499999" height="1133.999992" fill-opacity="1"/><g fill="#000000" fill-opacity="1"><g transform="translate(139.324222, 414.521894)"><g><path d="M 71.453125 0 L 48.796875 0 L 34.125 -28.390625 L 28.1875 -24.828125 L 28.1875 0 L 8.03125 0 L 8.03125 -74.25 L 28.1875 -74.25 L 28.1875 -42 C 29.195312 -44 31.242188 -47.164062 34.328125 -51.5 L 49.921875 -74.25 L 71.859375 -74.25 L 48.453125 -40.984375 Z M 71.453125 0 "/></g></g></g><g fill="#000000" fill-opacity="1"><g transform="translate(210.76807, 414.521894)"><g><path d="M 53.578125 0 L 49.921875 -13.921875 L 25.796875 -13.921875 L 22.046875 0 L 0 0 L 24.21875 -74.546875 L 50.984375 -74.546875 L 75.515625 0 Z M 45.75 -30.375 L 42.5625 -42.5625 C 41.8125 -45.269531 40.898438 -48.769531 39.828125 -53.0625 C 38.765625 -57.363281 38.066406 -60.445312 37.734375 -62.3125 C 37.429688 -60.582031 36.828125 -57.738281 35.921875 -53.78125 C 35.023438 -49.820312 33.039062 -42.019531 29.96875 -30.375 Z M 45.75 -30.375 "/></g></g></g><g fill="#000000" fill-opacity="1"><g transform="translate(286.274112, 414.521894)"><g><path d="M 40.375 0 L 25.1875 -53.46875 L 24.734375 -53.46875 C 25.441406 -44.363281 25.796875 -37.289062 25.796875 -32.25 L 25.796875 0 L 8.03125 0 L 8.03125 -74.25 L 34.734375 -74.25 L 50.21875 -21.53125 L 50.625 -21.53125 L 65.8125 -74.25 L 92.578125 -74.25 L 92.578125 0 L 74.140625 0 L 74.140625 -32.546875 C 74.140625 -34.242188 74.164062 -36.125 74.21875 -38.1875 C 74.269531 -40.25 74.5 -45.3125 74.90625 -53.375 L 74.453125 -53.375 L 59.46875 0 Z M 40.375 0 "/></g></g></g><g fill="#000000" fill-opacity="1"><g transform="translate(386.813429, 414.521894)"><g><path d="M 8.03125 0 L 8.03125 -74.25 L 28.1875 -74.25 L 28.1875 0 Z M 8.03125 0 "/></g></g></g><g fill="#000000" fill-opacity="1"><g transform="translate(423.01775, 414.521894)"><g/></g></g><g fill="#000000" fill-opacity="1"><g transform="translate(450.031344, 414.521894)"><g><path d="M 71.65625 0 L 51.5 0 L 51.5 -30.265625 L 28.1875 -30.265625 L 28.1875 0 L 8.03125 0 L 8.03125 -74.25 L 28.1875 -74.25 L 28.1875 -46.71875 L 51.5 -46.71875 L 51.5 -74.25 L 71.65625 -74.25 Z M 71.65625 0 "/></g></g></g><g fill="#000000" fill-opacity="1"><g transform="translate(529.701124, 414.521894)"><g><path d="M 53.578125 0 L 49.921875 -13.921875 L 25.796875 -13.921875 L 22.046875 0 L 0 0 L 24.21875 -74.546875 L 50.984375 -74.546875 L 75.515625 0 Z M 45.75 -30.375 L 42.5625 -42.5625 C 41.8125 -45.269531 40.898438 -48.769531 39.828125 -53.0625 C 38.765625 -57.363281 38.066406 -60.445312 37.734375 -62.3125 C 37.429688 -60.582031 36.828125 -57.738281 35.921875 -53.78125 C 35.023438 -49.820312 33.039062 -42.019531 29.96875 -30.375 Z M 45.75 -30.375 "/></g></g></g><g fill="#000000" fill-opacity="1"><g transform="translate(605.207179, 414.521894)"><g><path d="M 71.046875 -38.703125 C 71.046875 -26.304688 67.632812 -16.753906 60.8125 -10.046875 C 53.988281 -3.347656 44.398438 0 32.046875 0 L 8.03125 0 L 8.03125 -74.25 L 33.71875 -74.25 C 45.632812 -74.25 54.832031 -71.203125 61.3125 -65.109375 C 67.800781 -59.015625 71.046875 -50.210938 71.046875 -38.703125 Z M 50.21875 -37.984375 C 50.21875 -44.785156 48.875 -49.828125 46.1875 -53.109375 C 43.5 -56.398438 39.410156 -58.046875 33.921875 -58.046875 L 28.078125 -58.046875 L 28.078125 -16.453125 L 32.546875 -16.453125 C 38.640625 -16.453125 43.109375 -18.21875 45.953125 -21.75 C 48.796875 -25.289062 50.21875 -30.703125 50.21875 -37.984375 Z M 50.21875 -37.984375 "/></g></g></g><g fill="#000000" fill-opacity="1"><g transform="translate(681.525672, 414.521894)"><g><path d="M 8.03125 0 L 8.03125 -74.25 L 28.1875 -74.25 L 28.1875 0 Z M 8.03125 0 "/></g></g></g><g fill="#000000" fill-opacity="1"><g transform="translate(717.72997, 414.521894)"><g><path d="M 28.078125 -27.015625 L 28.078125 0 L 8.03125 0 L 8.03125 -74.25 L 32.34375 -74.25 C 52.519531 -74.25 62.609375 -66.9375 62.609375 -52.3125 C 62.609375 -43.707031 58.410156 -37.050781 50.015625 -32.34375 L 71.65625 0 L 48.90625 0 L 33.15625 -27.015625 Z M 28.078125 -42.09375 L 31.84375 -42.09375 C 38.851562 -42.09375 42.359375 -45.191406 42.359375 -51.390625 C 42.359375 -56.503906 38.921875 -59.0625 32.046875 -59.0625 L 28.078125 -59.0625 Z M 28.078125 -42.09375 "/></g></g></g><g fill="#000000" fill-opacity="1"><g transform="translate(788.107515, 414.521894)"><g/></g></g><g fill="#000000" fill-opacity="1"><g transform="translate(815.121109, 414.521894)"><g><path d="M 40.375 0 L 25.1875 -53.46875 L 24.734375 -53.46875 C 25.441406 -44.363281 25.796875 -37.289062 25.796875 -32.25 L 25.796875 0 L 8.03125 0 L 8.03125 -74.25 L 34.734375 -74.25 L 50.21875 -21.53125 L 50.625 -21.53125 L 65.8125 -74.25 L 92.578125 -74.25 L 92.578125 0 L 74.140625 0 L 74.140625 -32.546875 C 74.140625 -34.242188 74.164062 -36.125 74.21875 -38.1875 C 74.269531 -40.25 74.5 -45.3125 74.90625 -53.375 L 74.453125 -53.375 L 59.46875 0 Z M 40.375 0 "/></g></g></g><g fill="#000000" fill-opacity="1"><g transform="translate(915.660426, 414.521894)"><g><path d="M 52.109375 0 L 8.03125 0 L 8.03125 -74.25 L 52.109375 -74.25 L 52.109375 -58.140625 L 28.078125 -58.140625 L 28.078125 -46.46875 L 50.328125 -46.46875 L 50.328125 -30.375 L 28.078125 -30.375 L 28.078125 -16.359375 L 52.109375 -16.359375 Z M 52.109375 0 "/></g></g></g><g fill="#000000" fill-opacity="1"><g transform="translate(972.734214, 414.521894)"><g><path d="M 40.375 0 L 25.1875 -53.46875 L 24.734375 -53.46875 C 25.441406 -44.363281 25.796875 -37.289062 25.796875 -32.25 L 25.796875 0 L 8.03125 0 L 8.03125 -74.25 L 34.734375 -74.25 L 50.21875 -21.53125 L 50.625 -21.53125 L 65.8125 -74.25 L 92.578125 -74.25 L 92.578125 0 L 74.140625 0 L 74.140625 -32.546875 C 74.140625 -34.242188 74.164062 -36.125 74.21875 -38.1875 C 74.269531 -40.25 74.5 -45.3125 74.90625 -53.375 L 74.453125 -53.375 L 59.46875 0 Z M 40.375 0 "/></g></g></g><g fill="#000000" fill-opacity="1"><g transform="translate(1073.273577, 414.521894)"><g><path d="M 8.03125 -74.25 L 33.921875 -74.25 C 44.015625 -74.25 51.503906 -72.75 56.390625 -69.75 C 61.285156 -66.75 63.734375 -62.085938 63.734375 -55.765625 C 63.734375 -51.597656 62.664062 -48.039062 60.53125 -45.09375 C 58.394531 -42.144531 55.585938 -40.25 52.109375 -39.40625 L 52.109375 -38.90625 C 56.710938 -37.6875 60.046875 -35.65625 62.109375 -32.8125 C 64.171875 -29.96875 65.203125 -26.273438 65.203125 -21.734375 C 65.203125 -14.992188 62.671875 -9.6875 57.609375 -5.8125 C 52.546875 -1.9375 45.648438 0 36.921875 0 L 8.03125 0 Z M 28.078125 -45.75 L 34.125 -45.75 C 37 -45.75 39.222656 -46.34375 40.796875 -47.53125 C 42.378906 -48.71875 43.171875 -50.476562 43.171875 -52.8125 C 43.171875 -56.976562 40.019531 -59.0625 33.71875 -59.0625 L 28.078125 -59.0625 Z M 28.078125 -31.078125 L 28.078125 -15.484375 L 35.140625 -15.484375 C 41.398438 -15.484375 44.53125 -18.125 44.53125 -23.40625 C 44.53125 -25.882812 43.691406 -27.78125 42.015625 -29.09375 C 40.347656 -30.414062 37.921875 -31.078125 34.734375 -31.078125 Z M 28.078125 -31.078125 "/></g></g></g><g fill="#000000" fill-opacity="1"><g transform="translate(1143.346389, 414.521894)"><g><path d="M 52.109375 0 L 8.03125 0 L 8.03125 -74.25 L 52.109375 -74.25 L 52.109375 -58.140625 L 28.078125 -58.140625 L 28.078125 -46.46875 L 50.328125 -46.46875 L 50.328125 -30.375 L 28.078125 -30.375 L 28.078125 -16.359375 L 52.109375 -16.359375 Z M 52.109375 0 "/></g></g></g><g fill="#000000" fill-opacity="1"><g transform="translate(1200.420178, 414.521894)"><g><path d="M 28.078125 -27.015625 L 28.078125 0 L 8.03125 0 L 8.03125 -74.25 L 32.34375 -74.25 C 52.519531 -74.25 62.609375 -66.9375 62.609375 -52.3125 C 62.609375 -43.707031 58.410156 -37.050781 50.015625 -32.34375 L 71.65625 0 L 48.90625 0 L 33.15625 -27.015625 Z M 28.078125 -42.09375 L 31.84375 -42.09375 C 38.851562 -42.09375 42.359375 -45.191406 42.359375 -51.390625 C 42.359375 -56.503906 38.921875 -59.0625 32.046875 -59.0625 L 28.078125 -59.0625 Z M 28.078125 -42.09375 "/></g></g></g><g fill="#000000" fill-opacity="1"><g transform="translate(1270.797677, 414.521894)"><g><path d="M 8.03125 0 L 8.03125 -74.25 L 28.1875 -74.25 L 28.1875 0 Z M 8.03125 0 "/></g></g></g><g fill="#000000" fill-opacity="1"><g transform="translate(1307.002021, 414.521894)"><g><path d="M 71.453125 0 L 48.796875 0 L 34.125 -28.390625 L 28.1875 -24.828125 L 28.1875 0 L 8.03125 0 L 8.03125 -74.25 L 28.1875 -74.25 L 28.1875 -42 C 29.195312 -44 31.242188 -47.164062 34.328125 -51.5 L 49.921875 -74.25 L 71.859375 -74.25 L 48.453125 -40.984375 Z M 71.453125 0 "/></g></g></g><g fill="#000000" fill-opacity="1"><g transform="translate(1378.445834, 414.521894)"><g><path d="M 53.578125 0 L 49.921875 -13.921875 L 25.796875 -13.921875 L 22.046875 0 L 0 0 L 24.21875 -74.546875 L 50.984375 -74.546875 L 75.515625 0 Z M 45.75 -30.375 L 42.5625 -42.5625 C 41.8125 -45.269531 40.898438 -48.769531 39.828125 -53.0625 C 38.765625 -57.363281 38.066406 -60.445312 37.734375 -62.3125 C 37.429688 -60.582031 36.828125 -57.738281 35.921875 -53.78125 C 35.023438 -49.820312 33.039062 -42.019531 29.96875 -30.375 Z M 45.75 -30.375 "/></g></g></g><g fill="#000000" fill-opacity="1"><g transform="translate(1453.951843, 414.521894)"><g><path d="M 78.71875 0 L 52.40625 0 L 25.296875 -52.3125 L 24.828125 -52.3125 C 25.472656 -44.082031 25.796875 -37.800781 25.796875 -33.46875 L 25.796875 0 L 8.03125 0 L 8.03125 -74.25 L 34.234375 -74.25 L 61.25 -22.65625 L 61.546875 -22.65625 C 61.078125 -30.132812 60.84375 -36.140625 60.84375 -40.671875 L 60.84375 -74.25 L 78.71875 -74.25 Z M 78.71875 0 "/></g></g></g><g fill="#000000" fill-opacity="1"><g transform="translate(650.824197, 560.021887)"><g><path d="M 56.578125 -22.546875 C 56.578125 -17.941406 55.40625 -13.851562 53.0625 -10.28125 C 50.726562 -6.707031 47.359375 -3.929688 42.953125 -1.953125 C 38.554688 0.0234375 33.394531 1.015625 27.46875 1.015625 C 22.53125 1.015625 18.382812 0.671875 15.03125 -0.015625 C 11.675781 -0.710938 8.191406 -1.925781 4.578125 -3.65625 L 4.578125 -21.53125 C 8.398438 -19.570312 12.375 -18.039062 16.5 -16.9375 C 20.632812 -15.832031 24.425781 -15.28125 27.875 -15.28125 C 30.851562 -15.28125 33.035156 -15.796875 34.421875 -16.828125 C 35.816406 -17.867188 36.515625 -19.203125 36.515625 -20.828125 C 36.515625 -21.835938 36.234375 -22.722656 35.671875 -23.484375 C 35.117188 -24.242188 34.222656 -25.015625 32.984375 -25.796875 C 31.742188 -26.578125 28.453125 -28.171875 23.109375 -30.578125 C 18.265625 -32.773438 14.628906 -34.90625 12.203125 -36.96875 C 9.785156 -39.03125 7.992188 -41.398438 6.828125 -44.078125 C 5.660156 -46.753906 5.078125 -49.921875 5.078125 -53.578125 C 5.078125 -60.410156 7.566406 -65.738281 12.546875 -69.5625 C 17.523438 -73.394531 24.363281 -75.3125 33.0625 -75.3125 C 40.75 -75.3125 48.585938 -73.535156 56.578125 -69.984375 L 50.421875 -54.484375 C 43.484375 -57.671875 37.492188 -59.265625 32.453125 -59.265625 C 29.847656 -59.265625 27.953125 -58.804688 26.765625 -57.890625 C 25.578125 -56.972656 24.984375 -55.835938 24.984375 -54.484375 C 24.984375 -53.035156 25.734375 -51.734375 27.234375 -50.578125 C 28.742188 -49.429688 32.835938 -47.332031 39.515625 -44.28125 C 45.910156 -41.40625 50.351562 -38.316406 52.84375 -35.015625 C 55.332031 -31.710938 56.578125 -27.554688 56.578125 -22.546875 Z M 56.578125 -22.546875 "/></g></g></g><g fill="#000000" fill-opacity="1"><g transform="translate(710.843122, 560.021887)"><g><path d="M 77.5 -37.21875 C 77.5 -24.726562 74.429688 -15.234375 68.296875 -8.734375 C 62.171875 -2.234375 53.203125 1.015625 41.390625 1.015625 C 29.742188 1.015625 20.8125 -2.25 14.59375 -8.78125 C 8.382812 -15.320312 5.28125 -24.835938 5.28125 -37.328125 C 5.28125 -49.679688 8.367188 -59.113281 14.546875 -65.625 C 20.722656 -72.144531 29.703125 -75.40625 41.484375 -75.40625 C 53.304688 -75.40625 62.265625 -72.171875 68.359375 -65.703125 C 74.453125 -59.242188 77.5 -49.75 77.5 -37.21875 Z M 26.40625 -37.21875 C 26.40625 -22.863281 31.398438 -15.6875 41.390625 -15.6875 C 46.460938 -15.6875 50.226562 -17.429688 52.6875 -20.921875 C 55.144531 -24.410156 56.375 -29.84375 56.375 -37.21875 C 56.375 -44.632812 55.128906 -50.109375 52.640625 -53.640625 C 50.148438 -57.179688 46.429688 -58.953125 41.484375 -58.953125 C 31.429688 -58.953125 26.40625 -51.707031 26.40625 -37.21875 Z M 26.40625 -37.21875 "/></g></g></g><g fill="#000000" fill-opacity="1"><g transform="translate(793.711893, 560.021887)"><g><path d="M 8.03125 0 L 8.03125 -74.25 L 28.078125 -74.25 L 28.078125 -16.203125 L 56.671875 -16.203125 L 56.671875 0 Z M 8.03125 0 "/></g></g></g><g fill="#000000" fill-opacity="1"><g transform="translate(854.238593, 560.021887)"><g><path d="M 71.140625 -74.25 L 71.140625 -29.5625 C 71.140625 -19.84375 68.390625 -12.316406 62.890625 -6.984375 C 57.390625 -1.648438 49.460938 1.015625 39.109375 1.015625 C 28.984375 1.015625 21.203125 -1.570312 15.765625 -6.75 C 10.335938 -11.9375 7.625 -19.382812 7.625 -29.09375 L 7.625 -74.25 L 27.78125 -74.25 L 27.78125 -30.671875 C 27.78125 -25.421875 28.757812 -21.609375 30.71875 -19.234375 C 32.6875 -16.867188 35.582031 -15.6875 39.40625 -15.6875 C 43.5 -15.6875 46.46875 -16.863281 48.3125 -19.21875 C 50.164062 -21.570312 51.09375 -25.425781 51.09375 -30.78125 L 51.09375 -74.25 Z M 71.140625 -74.25 "/></g></g></g><g fill="#000000" fill-opacity="1"><g transform="translate(932.943614, 560.021887)"><g><path d="M 56.578125 -22.546875 C 56.578125 -17.941406 55.40625 -13.851562 53.0625 -10.28125 C 50.726562 -6.707031 47.359375 -3.929688 42.953125 -1.953125 C 38.554688 0.0234375 33.394531 1.015625 27.46875 1.015625 C 22.53125 1.015625 18.382812 0.671875 15.03125 -0.015625 C 11.675781 -0.710938 8.191406 -1.925781 4.578125 -3.65625 L 4.578125 -21.53125 C 8.398438 -19.570312 12.375 -18.039062 16.5 -16.9375 C 20.632812 -15.832031 24.425781 -15.28125 27.875 -15.28125 C 30.851562 -15.28125 33.035156 -15.796875 34.421875 -16.828125 C 35.816406 -17.867188 36.515625 -19.203125 36.515625 -20.828125 C 36.515625 -21.835938 36.234375 -22.722656 35.671875 -23.484375 C 35.117188 -24.242188 34.222656 -25.015625 32.984375 -25.796875 C 31.742188 -26.578125 28.453125 -28.171875 23.109375 -30.578125 C 18.265625 -32.773438 14.628906 -34.90625 12.203125 -36.96875 C 9.785156 -39.03125 7.992188 -41.398438 6.828125 -44.078125 C 5.660156 -46.753906 5.078125 -49.921875 5.078125 -53.578125 C 5.078125 -60.410156 7.566406 -65.738281 12.546875 -69.5625 C 17.523438 -73.394531 24.363281 -75.3125 33.0625 -75.3125 C 40.75 -75.3125 48.585938 -73.535156 56.578125 -69.984375 L 50.421875 -54.484375 C 43.484375 -57.671875 37.492188 -59.265625 32.453125 -59.265625 C 29.847656 -59.265625 27.953125 -58.804688 26.765625 -57.890625 C 25.578125 -56.972656 24.984375 -55.835938 24.984375 -54.484375 C 24.984375 -53.035156 25.734375 -51.734375 27.234375 -50.578125 C 28.742188 -49.429688 32.835938 -47.332031 39.515625 -44.28125 C 45.910156 -41.40625 50.351562 -38.316406 52.84375 -35.015625 C 55.332031 -31.710938 56.578125 -27.554688 56.578125 -22.546875 Z M 56.578125 -22.546875 "/></g></g></g><g fill="#000000" fill-opacity="1"><g transform="translate(992.962539, 560.021887)"><g><path d="M 8.03125 0 L 8.03125 -74.25 L 28.1875 -74.25 L 28.1875 0 Z M 8.03125 0 "/></g></g></g></svg>